<svg width="466" height="135" viewBox="0 0 466 135" fill="none" xmlns="http://www.w3.org/2000/svg">
<path d="M12.0047 119.186C8.70343 119.186 5.87632 117.957 3.5234 115.498C1.17047 113.039 -0.00399138 110.086 1.01908e-05 106.64V37.6377C1.01908e-05 34.1876 1.17647 31.233 3.5294 28.774C5.88232 26.315 8.70744 25.0876 12.0047 25.0918H36.0142V12.5459C36.0142 9.09579 37.1906 6.14123 39.5436 3.68223C41.8965 1.22323 44.7216 -0.00417132 48.0189 1.06502e-05H72.0283C75.3296 1.06502e-05 78.1568 1.22951 80.5097 3.6885C82.8626 6.1475 84.0371 9.09997 84.0331 12.5459V25.0918H108.043C111.344 25.0918 114.171 26.3213 116.524 28.7803C118.877 31.2393 120.051 34.1918 120.047 37.6377V106.64C120.047 110.09 118.871 113.045 116.518 115.504C114.165 117.963 111.34 119.19 108.043 119.186H12.0047ZM48.0189 25.0918H72.0283V12.5459H48.0189V25.0918Z" fill="white"/>
<path d="M40.8209 93.2492C42.6343 91.8092 43.4609 91.1426 43.3009 91.2492C48.5276 86.9292 52.6343 83.3826 55.6209 80.6092C58.6609 77.8359 61.2209 74.9292 63.3009 71.8892C65.3809 68.8492 66.4209 65.8892 66.4209 63.0092C66.4209 60.8226 65.9143 59.1159 64.9009 57.8892C63.8876 56.6626 62.3676 56.0492 60.3409 56.0492C58.3143 56.0492 56.7143 56.8226 55.5409 58.3692C54.4209 59.8626 53.8609 61.9959 53.8609 64.7692H40.6609C40.7676 60.2359 41.7276 56.4492 43.5409 53.4092C45.4076 50.3692 47.8343 48.1292 50.8209 46.6892C53.8609 45.2492 57.2209 44.5292 60.9009 44.5292C67.2476 44.5292 72.0209 46.1559 75.2209 49.4092C78.4743 52.6626 80.1009 56.9026 80.1009 62.1292C80.1009 67.8359 78.1543 73.1426 74.2609 78.0492C70.3676 82.9026 65.4076 87.6492 59.3809 92.2892H80.9809V103.409H40.8209V93.2492Z" fill="#6049E8"/>
<path d="M158.833 58.9292C161.98 58.9292 164.727 59.5692 167.073 60.8492C169.473 62.1292 171.313 63.8092 172.593 65.8892V59.5692H186.273V104.129C186.273 108.236 185.447 111.943 183.793 115.249C182.193 118.609 179.713 121.276 176.353 123.249C173.047 125.223 168.913 126.209 163.953 126.209C157.34 126.209 151.98 124.636 147.873 121.489C143.767 118.396 141.42 114.183 140.833 108.849H154.353C154.78 110.556 155.793 111.889 157.393 112.849C158.993 113.863 160.967 114.369 163.313 114.369C166.14 114.369 168.38 113.543 170.033 111.889C171.74 110.289 172.593 107.703 172.593 104.129V97.8092C171.26 99.8892 169.42 101.596 167.073 102.929C164.727 104.209 161.98 104.849 158.833 104.849C155.153 104.849 151.82 103.916 148.833 102.049C145.847 100.129 143.473 97.4359 141.713 93.9692C140.007 90.4492 139.153 86.3959 139.153 81.8092C139.153 77.2226 140.007 73.1959 141.713 69.7292C143.473 66.2626 145.847 63.5959 148.833 61.7292C151.82 59.8626 155.153 58.9292 158.833 58.9292ZM172.593 81.8892C172.593 78.4759 171.633 75.7826 169.713 73.8092C167.847 71.8359 165.553 70.8492 162.833 70.8492C160.113 70.8492 157.793 71.8359 155.873 73.8092C154.007 75.7292 153.073 78.3959 153.073 81.8092C153.073 85.2226 154.007 87.9426 155.873 89.9692C157.793 91.9426 160.113 92.9292 162.833 92.9292C165.553 92.9292 167.847 91.9426 169.713 89.9692C171.633 87.9959 172.593 85.3026 172.593 81.8892ZM238.25 81.1692C238.25 82.4492 238.17 83.7826 238.01 85.1692H207.05C207.264 87.9426 208.144 90.0759 209.69 91.5692C211.29 93.0092 213.237 93.7292 215.53 93.7292C218.944 93.7292 221.317 92.2892 222.65 89.4092H237.21C236.464 92.3426 235.104 94.9826 233.13 97.3292C231.21 99.6759 228.784 101.516 225.85 102.849C222.917 104.183 219.637 104.849 216.01 104.849C211.637 104.849 207.744 103.916 204.33 102.049C200.917 100.183 198.25 97.5159 196.33 94.0492C194.41 90.5826 193.45 86.5292 193.45 81.8892C193.45 77.2492 194.384 73.1959 196.25 69.7292C198.17 66.2626 200.837 63.5959 204.25 61.7292C207.664 59.8626 211.584 58.9292 216.01 58.9292C220.33 58.9292 224.17 59.8359 227.53 61.6492C230.89 63.4626 233.504 66.0492 235.37 69.4092C237.29 72.7692 238.25 76.6892 238.25 81.1692ZM224.25 77.5692C224.25 75.2226 223.45 73.3559 221.85 71.9692C220.25 70.5826 218.25 69.8892 215.85 69.8892C213.557 69.8892 211.61 70.5559 210.01 71.8892C208.464 73.2226 207.504 75.1159 207.13 77.5692H224.25ZM270.347 92.6092V104.209H263.387C258.427 104.209 254.56 103.009 251.787 100.609C249.014 98.1559 247.627 94.1826 247.627 88.6892V70.9292H242.187V59.5692H247.627V48.6892H261.307V59.5692H270.267V70.9292H261.307V88.8492C261.307 90.1826 261.627 91.1426 262.267 91.7292C262.907 92.3159 263.974 92.6092 265.467 92.6092H270.347ZM305.407 59.0892C310.527 59.0892 314.634 60.7959 317.727 64.2092C320.82 67.5692 322.367 72.2092 322.367 78.1292V104.209H308.767V79.9692C308.767 76.9826 307.994 74.6626 306.447 73.0092C304.9 71.3559 302.82 70.5292 300.207 70.5292C297.594 70.5292 295.514 71.3559 293.967 73.0092C292.42 74.6626 291.647 76.9826 291.647 79.9692V104.209H277.967V45.0092H291.647V65.5692C293.034 63.5959 294.927 62.0226 297.327 60.8492C299.727 59.6759 302.42 59.0892 305.407 59.0892ZM373.953 81.1692C373.953 82.4492 373.873 83.7826 373.713 85.1692H342.753C342.967 87.9426 343.847 90.0759 345.393 91.5692C346.993 93.0092 348.94 93.7292 351.233 93.7292C354.647 93.7292 357.02 92.2892 358.353 89.4092H372.913C372.167 92.3426 370.807 94.9826 368.833 97.3292C366.913 99.6759 364.487 101.516 361.553 102.849C358.62 104.183 355.34 104.849 351.713 104.849C347.34 104.849 343.447 103.916 340.033 102.049C336.62 100.183 333.953 97.5159 332.033 94.0492C330.113 90.5826 329.153 86.5292 329.153 81.8892C329.153 77.2492 330.087 73.1959 331.953 69.7292C333.873 66.2626 336.54 63.5959 339.953 61.7292C343.367 59.8626 347.287 58.9292 351.713 58.9292C356.033 58.9292 359.873 59.8359 363.233 61.6492C366.593 63.4626 369.207 66.0492 371.073 69.4092C372.993 72.7692 373.953 76.6892 373.953 81.1692ZM359.953 77.5692C359.953 75.2226 359.153 73.3559 357.553 71.9692C355.953 70.5826 353.953 69.8892 351.553 69.8892C349.26 69.8892 347.313 70.5559 345.713 71.8892C344.167 73.2226 343.207 75.1159 342.833 77.5692H359.953ZM394.85 67.0092C396.45 64.5559 398.45 62.6359 400.85 61.2492C403.25 59.8092 405.917 59.0892 408.85 59.0892V73.5692H405.09C401.677 73.5692 399.117 74.3159 397.41 75.8092C395.704 77.2492 394.85 79.8092 394.85 83.4892V104.209H381.17V59.5692H394.85V67.0092Z" fill="white"/>
</svg>
